<svg width="220" height="160" viewBox="0 0 220 160" fill="none" xmlns="http://www.w3.org/2000/svg">
<circle cx="45" cy="115" r="24.5" fill="white" stroke="#3B5998"/>
<path d="M49.0236 112.212H46.37H45.8687L45.87 111.711L45.8749 109.945C45.8749 109.945 45.8749 109.945 45.8749 109.945L45.8749 109.944L46.3749 109.945L49.0236 112.212ZM49.0236 112.212L48.7544 114.743H46.37H45.87V115.243V124.988H42.6222V115.243V114.743H42.1222H40.5V112.213H42.1222H42.6222V111.713V109.593C42.6222 108.209 42.9121 107.21 43.5149 106.555C44.1101 105.908 45.1002 105.5 46.7251 105.5H49.0596V108.031L49.0236 112.212Z" fill="#3B5998" stroke="#3B5998"/>
<circle cx="110" cy="115" r="24.5" fill="white" stroke="#00ACEE"/>
<path fill-rule="evenodd" clip-rule="evenodd" d="M109.91 111.659L109.87 111.008C109.751 109.319 110.794 107.776 112.444 107.178C113.051 106.965 114.08 106.938 114.754 107.125C115.018 107.204 115.519 107.47 115.876 107.71L116.522 108.148L117.235 107.922C117.631 107.803 118.159 107.603 118.397 107.47C118.621 107.351 118.819 107.284 118.819 107.324C118.819 107.55 118.331 108.321 117.922 108.747C117.367 109.345 117.526 109.398 118.647 108.999C119.321 108.773 119.334 108.773 119.202 109.026C119.123 109.159 118.713 109.625 118.278 110.05C117.539 110.781 117.499 110.861 117.499 111.473C117.499 112.417 117.05 114.385 116.602 115.462C115.77 117.484 113.988 119.572 112.206 120.622C109.698 122.098 106.359 122.471 103.547 121.606C102.61 121.314 101 120.569 101 120.436C101 120.396 101.488 120.343 102.082 120.33C103.323 120.303 104.564 119.957 105.62 119.345L106.333 118.92L105.514 118.641C104.353 118.242 103.31 117.324 103.046 116.46C102.967 116.181 102.993 116.167 103.732 116.167L104.498 116.154L103.851 115.848C103.085 115.462 102.386 114.811 102.043 114.146C101.792 113.667 101.475 112.457 101.568 112.364C101.594 112.324 101.871 112.404 102.188 112.51C103.099 112.843 103.217 112.763 102.69 112.204C101.7 111.194 101.396 109.691 101.871 108.268L102.096 107.63L102.967 108.494C104.749 110.236 106.847 111.274 109.25 111.579L109.91 111.659Z" fill="#00ACEE"/>
<circle cx="175" cy="115" r="24.5" fill="white" stroke="#C13584"/>
<path d="M175.002 110.898C172.732 110.898 170.901 112.729 170.901 115C170.901 117.271 172.732 119.102 175.002 119.102C177.272 119.102 179.103 117.271 179.103 115C179.103 112.729 177.272 110.898 175.002 110.898ZM175.002 117.667C173.535 117.667 172.335 116.471 172.335 115C172.335 113.529 173.531 112.333 175.002 112.333C176.472 112.333 177.668 113.529 177.668 115C177.668 116.471 176.469 117.667 175.002 117.667V117.667ZM180.227 110.73C180.227 111.262 179.799 111.687 179.271 111.687C178.739 111.687 178.314 111.258 178.314 110.73C178.314 110.202 178.743 109.773 179.271 109.773C179.799 109.773 180.227 110.202 180.227 110.73ZM182.944 111.701C182.883 110.419 182.59 109.284 181.652 108.349C180.716 107.413 179.581 107.12 178.3 107.056C176.979 106.981 173.021 106.981 171.7 107.056C170.422 107.117 169.287 107.41 168.348 108.345C167.41 109.28 167.12 110.416 167.056 111.698C166.981 113.019 166.981 116.978 167.056 118.299C167.117 119.581 167.41 120.716 168.348 121.651C169.287 122.587 170.419 122.88 171.7 122.944C173.021 123.019 176.979 123.019 178.3 122.944C179.581 122.883 180.716 122.59 181.652 121.651C182.587 120.716 182.88 119.581 182.944 118.299C183.019 116.978 183.019 113.022 182.944 111.701V111.701ZM181.238 119.716C180.959 120.416 180.42 120.955 179.717 121.237C178.664 121.655 176.165 121.559 175.002 121.559C173.838 121.559 171.336 121.651 170.287 121.237C169.587 120.959 169.048 120.42 168.766 119.716C168.348 118.663 168.445 116.164 168.445 115C168.445 113.836 168.352 111.333 168.766 110.284C169.044 109.584 169.583 109.045 170.287 108.763C171.34 108.345 173.838 108.441 175.002 108.441C176.165 108.441 178.668 108.349 179.717 108.763C180.417 109.041 180.956 109.58 181.238 110.284C181.655 111.337 181.559 113.836 181.559 115C181.559 116.164 181.655 118.667 181.238 119.716Z" fill="#C13584"/>
<circle opacity="0.1" cx="45" cy="45" r="25" fill="#212353"/>
<path d="M46.37 55.4882V45.2429H49.2041L49.5796 41.7123H46.37L46.3749 39.9452C46.3749 39.0244 46.4625 38.531 47.7879 38.531H49.5596V35H46.7251C43.3205 35 42.1222 36.7127 42.1222 39.593V41.7127H40V45.2433H42.1222V55.4882H46.37Z" fill="white"/>
<circle opacity="0.1" cx="110" cy="45" r="25" fill="#212353"/>
<path fill-rule="evenodd" clip-rule="evenodd" d="M109.91 41.6592L109.87 41.0076C109.751 39.3187 110.794 37.7761 112.444 37.1777C113.051 36.9649 114.08 36.9383 114.754 37.1245C115.018 37.2043 115.519 37.4702 115.876 37.7096L116.522 38.1485L117.235 37.9224C117.631 37.8027 118.159 37.6032 118.397 37.4702C118.621 37.3506 118.819 37.284 118.819 37.324C118.819 37.55 118.331 38.3213 117.922 38.7468C117.367 39.3453 117.526 39.3985 118.647 38.9995C119.321 38.7734 119.334 38.7734 119.202 39.0261C119.123 39.1591 118.713 39.6245 118.278 40.0501C117.539 40.7815 117.499 40.8613 117.499 41.473C117.499 42.4172 117.05 44.3853 116.602 45.4624C115.77 47.4838 113.988 49.5715 112.206 50.6221C109.698 52.0982 106.359 52.4705 103.547 51.6062C102.61 51.3136 101 50.5689 101 50.436C101 50.396 101.488 50.3428 102.082 50.3296C103.323 50.303 104.564 49.9572 105.62 49.3455L106.333 48.92L105.514 48.6407C104.353 48.2417 103.31 47.3242 103.046 46.4598C102.967 46.1805 102.993 46.1672 103.732 46.1672L104.498 46.1539L103.851 45.8481C103.085 45.4624 102.386 44.8108 102.043 44.1459C101.792 43.6672 101.475 42.457 101.568 42.364C101.594 42.3241 101.871 42.4038 102.188 42.5102C103.099 42.8427 103.217 42.7629 102.69 42.2044C101.7 41.1937 101.396 39.691 101.871 38.2681L102.096 37.6298L102.967 38.4942C104.749 40.2362 106.847 41.2735 109.25 41.5794L109.91 41.6592Z" fill="white"/>
<circle opacity="0.1" cx="175" cy="45" r="25" fill="#212353"/>
<path d="M175.002 40.8978C172.732 40.8978 170.901 42.7293 170.901 45C170.901 47.2707 172.732 49.1022 175.002 49.1022C177.272 49.1022 179.103 47.2707 179.103 45C179.103 42.7293 177.272 40.8978 175.002 40.8978ZM175.002 47.667C173.535 47.667 172.335 46.4709 172.335 45C172.335 43.5291 173.531 42.333 175.002 42.333C176.472 42.333 177.668 43.5291 177.668 45C177.668 46.4709 176.469 47.667 175.002 47.667ZM180.227 40.73C180.227 41.262 179.799 41.6868 179.271 41.6868C178.739 41.6868 178.314 41.2584 178.314 40.73C178.314 40.2016 178.743 39.7732 179.271 39.7732C179.799 39.7732 180.227 40.2016 180.227 40.73ZM182.944 41.7011C182.883 40.4194 182.59 39.2841 181.652 38.3487C180.716 37.4133 179.581 37.1205 178.3 37.0562C176.979 36.9813 173.021 36.9813 171.7 37.0562C170.422 37.1169 169.287 37.4097 168.348 38.3451C167.41 39.2805 167.12 40.4158 167.056 41.6975C166.981 43.0185 166.981 46.9779 167.056 48.2989C167.117 49.5806 167.41 50.7159 168.348 51.6513C169.287 52.5867 170.419 52.8795 171.7 52.9438C173.021 53.0187 176.979 53.0187 178.3 52.9438C179.581 52.8831 180.716 52.5903 181.652 51.6513C182.587 50.7159 182.88 49.5806 182.944 48.2989C183.019 46.9779 183.019 43.0221 182.944 41.7011ZM181.238 49.7163C180.959 50.416 180.42 50.9551 179.717 51.2372C178.664 51.6549 176.165 51.5585 175.002 51.5585C173.838 51.5585 171.336 51.6513 170.287 51.2372C169.587 50.9587 169.048 50.4196 168.766 49.7163C168.348 48.6631 168.445 46.1639 168.445 45C168.445 43.8361 168.352 41.3334 168.766 40.2837C169.044 39.584 169.583 39.0449 170.287 38.7628C171.34 38.3451 173.838 38.4415 175.002 38.4415C176.165 38.4415 178.668 38.3487 179.717 38.7628C180.417 39.0413 180.956 39.5804 181.238 40.2837C181.655 41.3369 181.559 43.8361 181.559 45C181.559 46.1639 181.655 48.6666 181.238 49.7163Z" fill="white"/>
<rect x="0.5" y="0.5" width="219" height="159" rx="4.5" stroke="#9747FF" stroke-dasharray="10 5"/>
</svg>
